G04 ================== begin FILE IDENTIFICATION RECORD ==================*
G04 Layout Name:  C:/Users/user/Desktop/work/ex2_rlc/allegro/ex2_rlc.brd*
G04 Film Name:    SilkT*
G04 File Format:  Gerber RS274X*
G04 File Origin:  Cadence Allegro 17.2-S038*
G04 Origin Date:  Thu Jul 11 11:35:51 2019*
G04 *
G04 Layer:  REF DES/SILKSCREEN_TOP*
G04 Layer:  PACKAGE GEOMETRY/SILKSCREEN_TOP*
G04 Layer:  BOARD GEOMETRY/SILKSCREEN_TOP*
G04 *
G04 Offset:    (0.000 0.000)*
G04 Mirror:    No*
G04 Mode:      Positive*
G04 Rotation:  0*
G04 FullContactRelief:  No*
G04 UndefLineWidth:     0.200*
G04 ================== end FILE IDENTIFICATION RECORD ====================*
%FSLAX25Y25*MOMM*%
%IR0*IPPOS*OFA0.00000B0.00000*MIA0B0*SFA1.00000B1.00000*%
%ADD10C,.2*%
G75*
%LPD*%
G75*
G54D10*
G01X1143000Y3149600D02*
Y2438400D01*
X889000D01*
Y3149600D01*
X1143000D01*
G01X1820700Y2212300D02*
Y2133600D01*
X1859700D01*
G01X1918900D02*
Y2212300D01*
X1907200Y2196600D01*
G01Y2133600D02*
X1930600D01*
G01X1930400Y1943100D02*
Y2120900D01*
X2133600D01*
Y1943100D01*
X1930400D01*
G01X1905000Y3175000D02*
Y3429000D01*
X2413000D01*
Y3175000D01*
X1905000D01*
G01X1902000Y3457400D02*
X1906900Y3449600D01*
X1912700Y3444300D01*
X1919600Y3441700D01*
X1927300Y3444300D01*
X1933200Y3449600D01*
X1939000Y3457400D01*
X1941000Y3467900D01*
Y3520400D01*
G01X2000200Y3441700D02*
Y3520400D01*
X1988500Y3504700D01*
G01Y3441700D02*
X2011900D01*
G01X2764600Y2758000D02*
X2755000Y2764400D01*
X2743700Y2768600D01*
X2730900D01*
X2716400Y2762200D01*
X2705100Y2751700D01*
X2697100Y2739000D01*
X2690600Y2717800D01*
X2689000Y2698700D01*
X2692300Y2679700D01*
X2697100Y2667000D01*
X2706700Y2654300D01*
X2718000Y2645800D01*
X2729200Y2641600D01*
X2740500D01*
X2751800Y2645800D01*
X2761400Y2652200D01*
X2769500Y2660600D01*
G01X2858700Y2641600D02*
Y2768600D01*
X2839400Y2743200D01*
G01Y2641600D02*
X2878000D01*
G01X3556000Y2413000D02*
G03I-254000J0D01*
G01X4699000Y2184400D02*
Y2895600D01*
X4953000D01*
Y2184400D01*
X4699000D01*
G01X4975400Y2654300D02*
Y2733000D01*
X4999800D01*
X5007600Y2729100D01*
X5012400Y2723800D01*
X5014400Y2713300D01*
X5012400Y2702800D01*
X5006600Y2696300D01*
X4999800Y2692300D01*
X4975400D01*
G01X4999800D02*
X5014400Y2654300D01*
G01X5055100Y2719900D02*
X5060900Y2727800D01*
X5067800Y2731700D01*
X5075500Y2733000D01*
X5085300Y2730400D01*
X5092100Y2723800D01*
X5094000Y2715900D01*
X5093100Y2708100D01*
X5089200Y2701500D01*
X5069700Y2688400D01*
X5060900Y2679200D01*
X5055100Y2666100D01*
X5053200Y2654300D01*
X5094000D01*
M02*
